<?xml version="1.0" encoding="utf-8"?>
<!-- Generator: Adobe Illustrator 19.1.0, SVG Export Plug-In . SVG Version: 6.00 Build 0)  -->
<svg version="1.1" id="Capa_1" xmlns="http://www.w3.org/2000/svg" xmlns:xlink="http://www.w3.org/1999/xlink" x="0px" y="0px"
	 viewBox="56 -56 612 612" style="enable-background:new 56 -56 612 612;" xml:space="preserve">
<style type="text/css">
	.st0{fill:#FEAD17;}
	.st1{fill:#5B6982;}
</style>
<g>
	<g>
		<path class="st0" d="M78.7,550.6h130.8V249.9H78.7V550.6z M144,274.1c19.1,0,34.6,15.5,34.6,34.6c0,19.1-15.5,34.6-34.6,34.6
			s-34.6-15.5-34.6-34.6C109.4,289.5,124.9,274.1,144,274.1z"/>
		<path class="st1" d="M639.2,260.9c0,0,42.8-103.4-97.9-77.7c0,0-86.9,18.2-96.9-8.4c0,0-6.9-20.2,25.1-58.5
			c0,0,70.8-78.7-9.3-155.4c0,0-40.8-34.4-47.2,15.7c-6.4,50.2,1,53.1-26.6,92c0,0-77.5,74.8-93.6,132.3c0,0-21.4,65.3-57.2,66.4
			v227.2c11.9-0.2,50.4-1.7,91.2,12.5c0,0,74.5,17.7,123,17.7c0,0,98.4,2.3,128.4-21c0,0,26.3-19.5,20.9-45.1c0,0-4.9-16.8,8-26.6
			c0,0,37.6-23.8,19.2-61.5c0,0-9.6-17.2,5.8-32c0,0,22.7-17.5,7-38.9C639.2,299.8,628.8,281.5,639.2,260.9z"/>
	</g>
</g>
</svg>
